# xmcd CD database file
#
# Track frame offsets:
#	150
#	16614
#	31532
#	53192
#	73923
#	91259
#	103139
#	126383
#	147343
#
# Disc length: 2218 seconds
#
# Revision: 0
# Processed by: cddbd v1.5.2PL0 Copyright (c) Steve Scherf et al.
# Submitted via: CDex 1.70beta2
#
DISCID=7508a809
DTITLE=Megaswing - Megaswing And Friends
DYEAR=2014
DGENRE=Jazz
TTITLE0=Drum Boogie
TTITLE1=Broadway
TTITLE2=Over The Rainbow - Angel Eyes
TTITLE3=My Full House
TTITLE4=Mood Indigo
TTITLE5=You Are So Beautiful
TTITLE6=Comin Home Baby
TTITLE7=Robbins Nest
TTITLE8=Femme Martinique Dou
EXTD=YEAR: 2014
EXTT0=
EXTT1=
EXTT2=
EXTT3=
EXTT4=
EXTT5=
EXTT6=
EXTT7=
EXTT8=
PLAYORDER=
